<svg xmlns="http://www.w3.org/2000/svg" version="1.1" viewBox="0 0 500 500">
<path d="M0,0 L500,0 L500,500 L0,500 Z " fill="#FF3131" transform="translate(0,0)"/>
<path d="M0,0 L500,0 L500,500 L0,500 Z M75,59 L75,60 L73,60 L73,61 L71,61 L71,62 L69,62 L69,63 L68,63 L68,64 L67,64 L67,65 L65,65 L65,66 L64,66 L64,68 L63,68 L63,69 L62,69 L62,71 L61,71 L61,73 L60,73 L60,75 L59,75 L59,425 L60,425 L60,427 L61,427 L61,429 L62,429 L62,431 L63,431 L63,432 L64,432 L64,434 L65,434 L65,435 L67,435 L67,436 L68,436 L68,437 L69,437 L69,438 L71,438 L71,439 L73,439 L73,440 L75,440 L75,441 L425,441 L425,440 L427,440 L427,439 L429,439 L429,438 L431,438 L431,437 L432,437 L432,436 L433,436 L433,435 L435,435 L435,434 L436,434 L436,432 L437,432 L437,431 L438,431 L438,429 L439,429 L439,427 L440,427 L440,425 L441,425 L441,75 L440,75 L440,73 L439,73 L439,71 L438,71 L438,69 L437,69 L437,68 L436,68 L436,66 L435,66 L435,65 L433,65 L433,64 L432,64 L432,63 L431,63 L431,62 L429,62 L429,61 L427,61 L427,60 L425,60 L425,59 Z " fill="#FFFEFE" transform="translate(0,0)"/>
<path d="M0,0 L1,0 L1,1 L2,1 L2,2 L3,2 L3,5 L4,5 L4,10 L5,10 L5,18 L6,18 L6,23 L7,23 L7,31 L8,31 L8,36 L9,36 L9,44 L10,44 L10,49 L11,49 L11,57 L12,57 L12,62 L13,62 L13,70 L14,70 L14,72 L15,72 L15,75 L16,75 L16,76 L17,76 L17,78 L19,78 L19,79 L20,79 L20,80 L22,80 L22,81 L31,81 L31,80 L33,80 L33,79 L35,79 L35,78 L36,78 L36,77 L38,77 L38,76 L39,76 L39,75 L40,75 L40,74 L42,74 L42,73 L43,73 L43,72 L45,72 L45,71 L46,71 L46,70 L47,70 L47,69 L49,69 L49,68 L50,68 L50,67 L51,67 L51,66 L53,66 L53,65 L54,65 L54,64 L56,64 L56,63 L57,63 L57,62 L58,62 L58,61 L60,61 L60,60 L61,60 L61,59 L63,59 L63,58 L64,58 L64,57 L65,57 L65,56 L67,56 L67,55 L68,55 L68,54 L69,54 L69,53 L71,53 L71,52 L72,52 L72,51 L74,51 L74,50 L75,50 L75,49 L76,49 L76,48 L78,48 L78,47 L79,47 L79,46 L80,46 L80,45 L82,45 L82,44 L83,44 L83,43 L85,43 L85,42 L86,42 L86,41 L87,41 L87,40 L89,40 L89,39 L90,39 L90,38 L92,38 L92,37 L94,37 L94,36 L96,36 L96,37 L97,37 L97,39 L96,39 L96,41 L95,41 L95,43 L94,43 L94,44 L93,44 L93,46 L92,46 L92,47 L91,47 L91,48 L90,48 L90,50 L89,50 L89,51 L88,51 L88,53 L87,53 L87,54 L86,54 L86,55 L85,55 L85,57 L84,57 L84,58 L83,58 L83,59 L82,59 L82,61 L81,61 L81,62 L80,62 L80,64 L79,64 L79,65 L78,65 L78,66 L77,66 L77,68 L76,68 L76,69 L75,69 L75,70 L74,70 L74,72 L73,72 L73,73 L72,73 L72,75 L71,75 L71,76 L70,76 L70,77 L69,77 L69,79 L68,79 L68,80 L67,80 L67,81 L66,81 L66,83 L65,83 L65,84 L64,84 L64,85 L63,85 L63,87 L62,87 L62,88 L61,88 L61,90 L60,90 L60,91 L59,91 L59,92 L58,92 L58,94 L57,94 L57,95 L56,95 L56,96 L55,96 L55,98 L54,98 L54,100 L53,100 L53,102 L52,102 L52,111 L53,111 L53,113 L54,113 L54,114 L55,114 L55,115 L56,115 L56,116 L57,116 L57,117 L58,117 L58,118 L60,118 L60,119 L63,119 L63,120 L70,120 L70,121 L76,121 L76,122 L85,122 L85,123 L89,123 L89,124 L94,124 L94,125 L102,125 L102,126 L107,126 L107,127 L117,127 L117,128 L121,128 L121,129 L128,129 L128,130 L130,130 L130,131 L132,131 L132,132 L133,132 L133,133 L132,133 L132,134 L130,134 L130,135 L126,135 L126,136 L118,136 L118,137 L113,137 L113,138 L109,138 L109,139 L99,139 L99,140 L94,140 L94,141 L86,141 L86,142 L81,142 L81,143 L77,143 L77,144 L68,144 L68,145 L64,145 L64,146 L60,146 L60,147 L58,147 L58,148 L57,148 L57,149 L55,149 L55,150 L54,150 L54,152 L53,152 L53,153 L52,153 L52,162 L53,162 L53,165 L54,165 L54,167 L55,167 L55,168 L56,168 L56,170 L57,170 L57,171 L58,171 L58,172 L59,172 L59,174 L60,174 L60,175 L61,175 L61,177 L62,177 L62,178 L63,178 L63,179 L64,179 L64,181 L65,181 L65,182 L66,182 L66,183 L67,183 L67,185 L68,185 L68,186 L69,186 L69,187 L70,187 L70,189 L71,189 L71,190 L72,190 L72,192 L73,192 L73,193 L74,193 L74,194 L75,194 L75,196 L76,196 L76,197 L77,197 L77,198 L78,198 L78,200 L79,200 L79,201 L80,201 L80,203 L81,203 L81,204 L82,204 L82,205 L83,205 L83,207 L84,207 L84,208 L85,208 L85,209 L86,209 L86,211 L87,211 L87,212 L88,212 L88,214 L89,214 L89,215 L90,215 L90,216 L91,216 L91,218 L92,218 L92,219 L93,219 L93,220 L94,220 L94,222 L95,222 L95,224 L96,224 L96,226 L97,226 L97,228 L93,228 L93,227 L91,227 L91,226 L89,226 L89,225 L88,225 L88,224 L86,224 L86,223 L85,223 L85,222 L84,222 L84,221 L82,221 L82,220 L81,220 L81,219 L79,219 L79,218 L78,218 L78,217 L77,217 L77,216 L75,216 L75,215 L74,215 L74,214 L73,214 L73,213 L71,213 L71,212 L70,212 L70,211 L68,211 L68,210 L67,210 L67,209 L66,209 L66,208 L64,208 L64,207 L63,207 L63,206 L61,206 L61,205 L60,205 L60,204 L59,204 L59,203 L57,203 L57,202 L56,202 L56,201 L55,201 L55,200 L53,200 L53,199 L52,199 L52,198 L50,198 L50,197 L49,197 L49,196 L48,196 L48,195 L46,195 L46,194 L45,194 L45,193 L43,193 L43,192 L42,192 L42,191 L41,191 L41,190 L39,190 L39,189 L38,189 L38,188 L37,188 L37,187 L35,187 L35,186 L33,186 L33,185 L31,185 L31,184 L21,184 L21,185 L19,185 L19,186 L18,186 L18,187 L17,187 L17,188 L16,188 L16,190 L15,190 L15,191 L14,191 L14,194 L13,194 L13,199 L12,199 L12,207 L11,207 L11,212 L10,212 L10,220 L9,220 L9,225 L8,225 L8,233 L7,233 L7,238 L6,238 L6,246 L5,246 L5,251 L4,251 L4,259 L3,259 L3,262 L2,262 L2,264 L1,264 L1,265 L0,265 L0,264 L-1,264 L-1,262 L-2,262 L-2,259 L-3,259 L-3,255 L-4,255 L-4,246 L-5,246 L-5,242 L-6,242 L-6,233 L-7,233 L-7,229 L-8,229 L-8,220 L-9,220 L-9,214 L-10,214 L-10,206 L-11,206 L-11,201 L-12,201 L-12,196 L-13,196 L-13,192 L-14,192 L-14,190 L-15,190 L-15,189 L-16,189 L-16,187 L-17,187 L-17,186 L-19,186 L-19,185 L-21,185 L-21,184 L-31,184 L-31,185 L-32,185 L-32,186 L-34,186 L-34,187 L-36,187 L-36,188 L-37,188 L-37,189 L-38,189 L-38,190 L-40,190 L-40,191 L-41,191 L-41,192 L-43,192 L-43,193 L-44,193 L-44,194 L-45,194 L-45,195 L-47,195 L-47,196 L-48,196 L-48,197 L-49,197 L-49,198 L-51,198 L-51,199 L-52,199 L-52,200 L-54,200 L-54,201 L-55,201 L-55,202 L-56,202 L-56,203 L-58,203 L-58,204 L-59,204 L-59,205 L-61,205 L-61,206 L-62,206 L-62,207 L-63,207 L-63,208 L-65,208 L-65,209 L-66,209 L-66,210 L-67,210 L-67,211 L-69,211 L-69,212 L-70,212 L-70,213 L-72,213 L-72,214 L-73,214 L-73,215 L-74,215 L-74,216 L-76,216 L-76,217 L-77,217 L-77,218 L-78,218 L-78,219 L-80,219 L-80,220 L-81,220 L-81,221 L-83,221 L-83,222 L-84,222 L-84,223 L-85,223 L-85,224 L-87,224 L-87,225 L-88,225 L-88,226 L-90,226 L-90,227 L-92,227 L-92,228 L-95,228 L-95,225 L-94,225 L-94,224 L-93,224 L-93,222 L-92,222 L-92,221 L-91,221 L-91,220 L-90,220 L-90,218 L-89,218 L-89,217 L-88,217 L-88,216 L-87,216 L-87,215 L-86,215 L-86,213 L-85,213 L-85,212 L-84,212 L-84,211 L-83,211 L-83,210 L-82,210 L-82,208 L-81,208 L-81,207 L-80,207 L-80,206 L-79,206 L-79,205 L-78,205 L-78,203 L-77,203 L-77,202 L-76,202 L-76,201 L-75,201 L-75,200 L-74,200 L-74,198 L-73,198 L-73,197 L-72,197 L-72,196 L-71,196 L-71,195 L-70,195 L-70,194 L-69,194 L-69,192 L-68,192 L-68,191 L-67,191 L-67,190 L-66,190 L-66,189 L-65,189 L-65,187 L-64,187 L-64,186 L-63,186 L-63,185 L-62,185 L-62,184 L-61,184 L-61,182 L-60,182 L-60,181 L-59,181 L-59,180 L-58,180 L-58,179 L-57,179 L-57,177 L-56,177 L-56,176 L-55,176 L-55,175 L-54,175 L-54,174 L-53,174 L-53,172 L-52,172 L-52,171 L-51,171 L-51,170 L-50,170 L-50,169 L-49,169 L-49,167 L-48,167 L-48,166 L-47,166 L-47,164 L-46,164 L-46,162 L-45,162 L-45,152 L-46,152 L-46,151 L-47,151 L-47,150 L-48,150 L-48,149 L-49,149 L-49,148 L-50,148 L-50,147 L-53,147 L-53,146 L-56,146 L-56,145 L-64,145 L-64,144 L-69,144 L-69,143 L-76,143 L-76,142 L-86,142 L-86,141 L-93,141 L-93,140 L-98,140 L-98,139 L-108,139 L-108,138 L-115,138 L-115,137 L-120,137 L-120,136 L-129,136 L-129,135 L-131,135 L-131,134 L-133,134 L-133,132 L-132,132 L-132,131 L-131,131 L-131,130 L-125,130 L-125,129 L-122,129 L-122,128 L-114,128 L-114,127 L-108,127 L-108,126 L-103,126 L-103,125 L-95,125 L-95,124 L-89,124 L-89,123 L-80,123 L-80,122 L-76,122 L-76,121 L-71,121 L-71,120 L-63,120 L-63,119 L-61,119 L-61,118 L-58,118 L-58,117 L-56,117 L-56,116 L-55,116 L-55,115 L-54,115 L-54,114 L-53,114 L-53,113 L-52,113 L-52,111 L-51,111 L-51,102 L-52,102 L-52,100 L-53,100 L-53,98 L-54,98 L-54,97 L-55,97 L-55,95 L-56,95 L-56,94 L-57,94 L-57,92 L-58,92 L-58,91 L-59,91 L-59,90 L-60,90 L-60,88 L-61,88 L-61,87 L-62,87 L-62,86 L-63,86 L-63,84 L-64,84 L-64,83 L-65,83 L-65,81 L-66,81 L-66,80 L-67,80 L-67,79 L-68,79 L-68,77 L-69,77 L-69,76 L-70,76 L-70,75 L-71,75 L-71,73 L-72,73 L-72,72 L-73,72 L-73,70 L-74,70 L-74,69 L-75,69 L-75,68 L-76,68 L-76,66 L-77,66 L-77,65 L-78,65 L-78,64 L-79,64 L-79,62 L-80,62 L-80,61 L-81,61 L-81,59 L-82,59 L-82,58 L-83,58 L-83,57 L-84,57 L-84,55 L-85,55 L-85,54 L-86,54 L-86,53 L-87,53 L-87,51 L-88,51 L-88,50 L-89,50 L-89,49 L-90,49 L-90,47 L-91,47 L-91,46 L-92,46 L-92,44 L-93,44 L-93,43 L-94,43 L-94,41 L-95,41 L-95,39 L-96,39 L-96,37 L-95,37 L-95,36 L-93,36 L-93,37 L-91,37 L-91,38 L-89,38 L-89,39 L-88,39 L-88,40 L-86,40 L-86,41 L-85,41 L-85,42 L-84,42 L-84,43 L-82,43 L-82,44 L-81,44 L-81,45 L-80,45 L-80,46 L-78,46 L-78,47 L-77,47 L-77,48 L-75,48 L-75,49 L-74,49 L-74,50 L-73,50 L-73,51 L-71,51 L-71,52 L-70,52 L-70,53 L-68,53 L-68,54 L-67,54 L-67,55 L-66,55 L-66,56 L-64,56 L-64,57 L-63,57 L-63,58 L-62,58 L-62,59 L-60,59 L-60,60 L-59,60 L-59,61 L-57,61 L-57,62 L-56,62 L-56,63 L-55,63 L-55,64 L-53,64 L-53,65 L-52,65 L-52,66 L-50,66 L-50,67 L-49,67 L-49,68 L-48,68 L-48,69 L-46,69 L-46,70 L-45,70 L-45,71 L-44,71 L-44,72 L-42,72 L-42,73 L-41,73 L-41,74 L-39,74 L-39,75 L-38,75 L-38,76 L-37,76 L-37,77 L-35,77 L-35,78 L-34,78 L-34,79 L-32,79 L-32,80 L-30,80 L-30,81 L-22,81 L-22,80 L-19,80 L-19,79 L-18,79 L-18,78 L-17,78 L-17,77 L-16,77 L-16,76 L-15,76 L-15,75 L-14,75 L-14,72 L-13,72 L-13,70 L-12,70 L-12,63 L-11,63 L-11,59 L-10,59 L-10,50 L-9,50 L-9,46 L-8,46 L-8,37 L-7,37 L-7,33 L-6,33 L-6,24 L-5,24 L-5,18 L-4,18 L-4,11 L-3,11 L-3,5 L-2,5 L-2,2 L-1,2 L-1,1 L0,1 Z " fill="#FFFDFD" transform="translate(250,128)"/>
</svg>